<?xml version="1.0" encoding="utf-8"?>
<!-- Generator: Adobe Illustrator 28.1.0, SVG Export Plug-In . SVG Version: 6.00 Build 0)  -->
<svg version="1.1" id="Слой_1" xmlns="http://www.w3.org/2000/svg" xmlns:xlink="http://www.w3.org/1999/xlink" x="0px" y="0px"
	 viewBox="0 0 566.9 141.7" style="enable-background:new 0 0 566.9 141.7;" xml:space="preserve">
<style type="text/css">
	.st0{fill:#A6A8AB;}
	.st1{fill:#A20C33;}
	.st2{fill:#FFFFFF;}
</style>
<g>
	<g>
		<path class="st0" d="M241.8,111.8c0,5.9-4.3,9.5-11.1,9.5h-5.1v7.2h-5.9v-26.3h11C237.5,102.3,241.8,105.9,241.8,111.8z
			 M235.8,111.8c0-2.9-1.8-4.6-5.4-4.6h-4.8v9.1h4.8C234,116.4,235.8,114.7,235.8,111.8z"/>
		<path class="st0" d="M265.8,123.7v4.9H246v-26.3h19.3v4.9h-13.4v5.7h11.8v4.7h-11.8v6.1L265.8,123.7L265.8,123.7z"/>
		<path class="st0" d="M304.5,102.3v26.3h-33.6v-26.3h5.9v21.3h8v-21.3h5.9v21.3h8v-21.3H304.5z"/>
		<path class="st0" d="M331,123.7v4.9h-19.7v-26.3h19.3v4.9h-13.4v5.7H329v4.7h-11.8v6.1L331,123.7L331,123.7z"/>
		<path class="st0" d="M359.5,102.3v26.3h-5.9v-10.8H342v10.8h-5.9v-26.3h5.9v10.4h11.6v-10.4H359.5z"/>
		<path class="st0" d="M366.2,102.3h5.9v17.1l12.2-17.1h5.5v26.3H384v-17.1l-12.2,17.1h-5.6L366.2,102.3L366.2,102.3z"/>
		<path class="st0" d="M416.8,102.3v26.3H411v-7h-5.4l-4.5,7h-6.2l5.3-7.9c-3.4-1.4-5.4-4.4-5.4-8.6c0-6.1,4.3-9.8,11-9.8H416.8z
			 M400.8,112c0,3,1.7,4.8,5,4.8h5.2v-9.5h-5C402.6,107.3,400.8,108.9,400.8,112z"/>
	</g>
	<path class="st1" d="M21.3,51.6c0-12.9,9.7-22.1,23.2-22.1c8.7,0,15.6,3.9,18.6,10.9l-9.4,5.2c-2.2-4.1-5.6-5.9-9.4-5.9
		c-6.1,0-10.9,4.4-10.9,11.9s4.8,11.9,10.9,11.9c3.8,0,7.1-1.8,9.4-5.9l9.4,5.3c-3,6.9-9.9,10.8-18.6,10.8
		C30.9,73.7,21.3,64.5,21.3,51.6z"/>
	<path class="st1" d="M66.5,51.6c0-12.9,9.7-22.1,22.9-22.1s22.8,9.2,22.8,22.1s-9.6,22.1-22.8,22.1S66.5,64.5,66.5,51.6z M100,51.6
		c0-7.4-4.6-11.9-10.6-11.9s-10.7,4.5-10.7,11.9s4.6,11.9,10.7,11.9S100,59,100,51.6z"/>
	<path class="st1" d="M153.1,73.9v14.7H142V73.9c-15.9-1.1-24.9-8.9-24.9-22.4c0-13.3,8.8-20.7,24.9-21.9V13.9h11.1v15.7
		C169,30.7,178,38.2,178,51.5C178,64.9,169,72.7,153.1,73.9z M142.1,64.2v-25c-9.3,1-13.2,5-13.2,12.2
		C128.8,59,132.8,63.2,142.1,64.2z M166.4,51.5c0-7.3-4-11.2-13.3-12.2v25C162.4,63.2,166.4,59,166.4,51.5z"/>
	<path class="st1" d="M219.7,40.4h-14.1v32.7h-12V40.4h-14.1V30.2h40.2L219.7,40.4L219.7,40.4z"/>
	<path class="st0" d="M264.9,30.2v42.9h-12.1V40.4h-13.2l-0.4,7.6c-0.6,15.3-3,26-13.3,26c-1.9,0-3.9-0.3-6.3-1l0.6-10.2
		c0.6,0.1,1.2,0.2,1.8,0.2c5.7,0,6.2-7.4,6.6-15.6l0.6-17.2H264.9z"/>
	<path class="st0" d="M312.7,48.6v24.5h-11.3v-5.3c-2.2,3.9-6.6,6-12.7,6c-9.7,0-15.6-5.6-15.6-13c0-7.6,5.2-12.8,17.9-12.8h9.6
		c0-5.3-3.1-8.5-9.6-8.5c-4.4,0-9,1.5-12,4l-4.3-8.7c4.6-3.4,11.3-5.2,18-5.2C305.4,29.5,312.7,35.6,312.7,48.6z M300.6,59.5v-4.4
		h-8.3c-5.6,0-7.4,2.2-7.4,5c0,3.1,2.6,5.2,6.8,5.2C295.8,65.3,299.2,63.4,300.6,59.5z"/>
	<path class="st0" d="M322,30.2h12v25.5l20.3-25.5h11.1v42.9h-12V47.5L333.2,73H322V30.2z M329.2,13.2h7.9c0.1,3.7,1.9,5.9,5.7,5.9
		c3.7,0,5.8-2.2,5.8-5.9h8c-0.1,8.3-4.7,12.4-13.8,12.4C333.9,25.5,329.3,21.5,329.2,13.2z"/>
	<path class="st0" d="M374.7,30.2h12V47h18.1V30.2h12.1v42.9h-12.1V57h-18.1v16h-12V30.2z"/>
	<g>
		<rect x="447.4" y="82" class="st0" width="46.5" height="46.5"/>
		<g>
			<g>
				<path class="st2" d="M464.9,95v9.5h13.7v3.3h-13.7v11H461V91.6h19.2V95H464.9z"/>
			</g>
		</g>
	</g>
	<g>
		<rect x="499.2" y="82" class="st0" width="46.5" height="46.5"/>
		<g>
			<g>
				<path class="st2" d="M513.1,91.6h3.9v23.9h14.8v3.4h-18.7V91.6z"/>
			</g>
		</g>
	</g>
	<g>
		<rect x="447.4" y="30.2" class="st1" width="46.5" height="46.5"/>
		<g>
			<g>
				<path class="st2" d="M460.1,63.9l1.4-3c2,1.8,5.5,3.2,9,3.2c4.7,0,6.7-1.8,6.7-4.2c0-6.7-16.5-2.5-16.5-12.6
					c0-4.2,3.3-7.8,10.4-7.8c3.2,0,6.5,0.9,8.8,2.4l-1.3,3.1c-2.4-1.5-5.1-2.2-7.5-2.2c-4.6,0-6.6,1.9-6.6,4.3
					c0,6.7,16.5,2.5,16.5,12.5c0,4.2-3.3,7.7-10.6,7.7C466.4,67.3,462.3,65.9,460.1,63.9z"/>
			</g>
		</g>
	</g>
	<g>
		<rect x="499.2" y="30.2" class="st0" width="46.5" height="46.5"/>
		<g>
			<g>
				<path class="st2" d="M508.5,53.4c0-8,5.9-13.9,13.9-13.9s13.9,5.9,13.9,13.9s-5.9,13.9-13.9,13.9S508.5,61.4,508.5,53.4z
					 M532.6,53.4c0-6-4.3-10.5-10.1-10.5c-5.9,0-10.2,4.4-10.2,10.5s4.3,10.5,10.2,10.5C528.3,63.9,532.6,59.4,532.6,53.4z"/>
			</g>
		</g>
	</g>
</g>
</svg>
